<svg xmlns="http://www.w3.org/2000/svg" version="1.1" xmlns:xlink="http://www.w3.org/1999/xlink" xmlns:svgjs="http://svgjs.dev/svgjs" width="1500" height="1500" viewBox="0 0 1500 1500"><rect width="1500" height="1500" fill="#ffffff"></rect><g transform="matrix(0.6666666666666666,0,0,0.6666666666666666,249.39393939393932,672.646013011286)"><svg viewBox="0 0 396 61" data-background-color="#713f12" preserveAspectRatio="xMidYMid meet" height="231" width="1500" xmlns="http://www.w3.org/2000/svg" xmlns:xlink="http://www.w3.org/1999/xlink"><g id="tight-bounds" transform="matrix(1,0,0,1,0.24000000000003752,0.14021562539969068)"><svg viewBox="0 0 395.5199999999999 60.71956874920063" height="60.71956874920063" width="395.5199999999999"><g><svg viewBox="0 0 638.5008721771965 98.02158577211735" height="60.71956874920063" width="395.5199999999999"><g transform="matrix(1,0,0,1,0,13.547122201501026)"><svg viewBox="0 0 395.52 70.9273413691153" height="70.9273413691153" width="395.52"><g id="textblocktransform"><svg viewBox="0 0 395.52 70.9273413691153" height="70.9273413691153" width="395.52" id="textblock"><g><svg viewBox="0 0 395.52 70.9273413691153" height="70.9273413691153" width="395.52"><g transform="matrix(1,0,0,1,0,0)"><svg width="395.52" viewBox="2.29 -38.01 211.6 38.5" height="70.9273413691153" data-palette-color="#fcfaf7"><g class="wordmark-text-0" data-fill-palette-color="primary" id="text-0"><path d="M16.14-13.18L8.76-26.59Q8.72-24.05 8.72-20.8L8.72-20.8Q8.72-16.19 8.89-10.24 9.06-4.3 9.16-3.48 9.25-2.66 9.4-2.05L9.4-2.05Q9.64-1.05 10.16 0L10.16 0 3.61 0Q4.35-1.49 4.5-2.92 4.66-4.35 4.76-5.76L4.76-5.76Q4.96-8.64 4.96-13.5L4.96-13.5Q4.96-19.38 4.76-24.24L4.76-24.24 4.49-30.96Q4.35-34.67 3.32-36.23L3.32-36.23Q2.91-36.82 2.29-37.35L2.29-37.35 9.89-37.35Q11.33-34.03 12.94-30.76L12.94-30.76 16.26-24.27 23.39-11.16Q23.41-12.7 23.41-14.45L23.41-14.45 23.41-18.26Q23.41-30.47 21.92-35.89L21.92-35.89Q21.63-36.89 21.29-37.35L21.29-37.35 28.64-37.38Q27.42-34.94 27.1-23.63L27.1-23.63Q27.05-21.88 27.05-20.26L27.05-20.26 27.08-18.21 27.08-8.25Q27.08-1.93 27.17 0L27.17 0 23.22 0 16.14-13.18ZM44.36-22.71Q42.16-22.71 41.2-20.51 40.23-18.31 40.23-13.11L40.23-13.11Q40.23-1.95 44.36-1.95L44.36-1.95Q46.56-1.95 47.52-4.93 48.48-7.91 48.48-13.11 48.48-18.31 47.52-20.51 46.56-22.71 44.36-22.71L44.36-22.71ZM34.08-14.04Q34.08-25.15 44.36-25.15 54.64-25.15 54.64-14.04L54.64-14.04Q54.64-7.3 51.8-3.37L51.8-3.37Q49.05 0.49 44.36 0.49 39.67 0.49 36.91-3.37L36.91-3.37Q34.08-7.3 34.08-14.04L34.08-14.04ZM57.32-24.66L66.33-24.66Q65.89-23.58 65.89-22.3 65.89-21.02 66.08-20.03 66.28-19.04 66.62-17.72L66.62-17.72 69.26-8.35 70.19-5.35Q71.63-9.67 72.09-11.18L72.09-11.18 72.97-14.16Q74.41-19.07 74.41-20.24 74.41-21.41 74.3-21.96 74.19-22.51 73.99-22.95L73.99-22.95Q73.75-23.61 73.04-24.66L73.04-24.66 81.93-24.66Q80.12-22.17 79.51-20.92L79.51-20.92 78.61-19.07Q78.39-18.63 78-17.8L78-17.8Q73.21-6.88 73.21-3.17L73.21-3.17Q73.21-1.49 73.85 0L73.85 0 65.06 0Q65.64-0.93 65.75-1.75 65.86-2.56 65.86-3.43 65.86-4.3 65.42-5.93 64.99-7.57 64.28-9.64 63.57-11.72 62.65-14.03 61.74-16.33 60.79-18.43L60.79-18.43Q58.64-23.14 57.32-24.66L57.32-24.66ZM93.36-31.23Q92.86-30.42 92.16-29.87 91.45-29.32 90.54-29.32 89.64-29.32 88.93-29.87 88.22-30.42 87.74-31.23L87.74-31.23Q86.74-32.89 86.74-34.74L86.74-34.74Q86.74-36.99 88.79-37.74L88.79-37.74Q89.52-38.01 90.57-38.01L90.57-38.01Q93.47-38.01 94.18-35.96L94.18-35.96Q94.4-35.38 94.4-34.66 94.4-33.94 94.13-32.98 93.86-32.03 93.36-31.23ZM93.94 0L86.74 0Q87.86-3.86 87.86-13.26L87.86-13.26Q87.86-19.87 86.69-22.36L86.69-22.36Q86.39-23 86.03-23.54L86.03-23.54 85.22-24.66 93.89-24.66Q92.81-20.63 92.81-12.24 92.81-3.86 93.94 0L93.94 0Z" fill="#000000" data-fill-palette-color="primary"></path><path d="M120.74-34.42L120.74-34.42Q120.23-32.54 120.23-29.92 120.23-27.29 120.34-26.56 120.45-25.83 120.69-25.39L120.69-25.39Q121.16-24.66 122.5-24.66L122.5-24.66 129.04-24.66Q129.04-23.29 128.38-22.56L128.38-22.56Q127.19-21.24 125.45-21.24L125.45-21.24Q124.6-21.24 123.94-21.48L123.94-21.48Q122.74-21.97 122.08-21.97 121.42-21.97 121.01-21.72 120.59-21.46 120.35-20.97L120.35-20.97Q119.91-20.09 119.91-17.14 119.91-14.18 120.09-11.08 120.28-7.98 121.01-5.9 121.74-3.81 123.23-2.76 124.72-1.71 127.33-1.71L127.33-1.71Q127.33-0.95 126.31 0.1L126.31 0.1Q126.04 0.39 125.84 0.49L125.84 0.49Q121.52 0.49 119.37-0.54L119.37-0.54Q116.91-1.76 115.86-4.88L115.86-4.88Q114.81-8.06 114.81-14.28L114.81-14.28Q114.81-19.73 114.51-20.72 114.22-21.7 113.98-22.02L113.98-22.02Q113.68-22.39 112.56-22.92L112.56-22.92Q114.08-24.07 115.56-27.2L115.56-27.2 116.79-29.76Q118.08-32.69 118.99-33.56 119.91-34.42 120.74-34.42ZM149.77-13.04L149.77-13.04 149.69-8.35Q149.69-3.98 150.5-2.39L150.5-2.39Q150.99-1.44 151.65-0.93L151.65-0.93 152.79 0 145.71 0 144.96-2.83Q142.2 0.49 137.1 0.49L137.1 0.49Q134.19 0.49 132.41-1.46L132.41-1.46Q130.85-3.22 130.85-5.62 130.85-8.01 131.98-9.79 133.12-11.57 134.97-12.74L134.97-12.74Q138.63-15.01 144.18-15.11L144.18-15.11 144.18-15.38Q144.18-21.31 142.34-22.34L142.34-22.34Q141.69-22.71 140.65-22.71 139.61-22.71 138.58-22.02 137.56-21.34 136.73-20.26L136.73-20.26Q135.07-18.09 134.36-15.14L134.36-15.14Q132.19-16.43 132.19-20.09L132.19-20.09Q132.19-21.58 132.58-23.44L132.58-23.44Q133.51-23.44 134.34-23.71L134.34-23.71 136.22-24.29Q138.98-25.15 141.61-25.15 144.25-25.15 145.82-24.37 147.4-23.58 148.28-22.05L148.28-22.05Q149.77-19.43 149.77-13.04ZM136.12-5.13Q136.12-3.61 136.81-2.78 137.51-1.95 138.56-1.95 139.61-1.95 140.59-2.5 141.56-3.05 142.34-4L142.34-4Q144.18-6.18 144.18-9.11L144.18-9.11 144.18-12.72Q140.76-12.4 138.54-10.45L138.54-10.45Q136.12-8.35 136.12-5.13L136.12-5.13ZM163.12-23.9L163.12-23.9Q165.56-25.15 168.01-25.15 170.47-25.15 171.98-24.6 173.49-24.05 174.57-23L174.57-23Q176.81-20.78 176.81-16.65L176.81-16.65Q176.81-8.5 172.54-4L172.54-4Q168.71 0 162.97 0L162.97 0 156.33 0 156.79-1.12Q157.53-2.91 157.65-4.8 157.77-6.69 157.83-8.26 157.89-9.84 157.94-11.67L157.94-11.67Q158.06-14.97 158.06-18.14 158.06-21.31 158.04-22.95 158.02-24.58 157.99-26.12L157.99-26.12Q157.84-31.93 157.52-33.19 157.19-34.45 156.88-35.07 156.58-35.69 156.18-36.23L156.18-36.23 155.35-37.35 164.27-37.35Q163.36-34.13 163.12-23.9ZM163.14-17.48L163.14-17.48 163.07-8.5Q163.07-3.78 163.31-1.88L163.31-1.88Q166.66-2.61 168.68-6.35L168.68-6.35Q170.71-10.03 170.71-15.43L170.71-15.43Q170.71-18.77 170.21-20.13 169.71-21.48 169.01-22.09 168.32-22.71 167.35-22.71 166.39-22.71 165.66-22.36 164.92-22.02 164.36-21.36L164.36-21.36Q163.14-19.92 163.14-17.48ZM188.75-17.58L188.73-11.18Q188.73-3.27 189.68 0L189.68 0 182.48 0Q183.16-2.37 183.33-5.59L183.33-5.59Q183.7-13.38 183.7-17.68 183.7-21.97 183.67-23.45 183.65-24.93 183.62-26.42L183.62-26.42Q183.48-31.71 183.12-33.09 182.77-34.47 182.46-35.1 182.16-35.72 181.77-36.23L181.77-36.23 180.96-37.35 189.87-37.35Q189.19-34.89 189.08-32.63 188.97-30.37 188.91-28.64 188.85-26.9 188.8-25.02L188.8-25.02Q188.75-21.9 188.75-17.58L188.75-17.58ZM212.77-8.3L212.77-8.3Q213.65-7.71 213.65-6.26 213.65-4.81 213.26-3.71 212.87-2.61 211.89-1.66L211.89-1.66Q209.7 0.49 205.2 0.49L205.2 0.49Q199.98 0.49 197.24-3.37L197.24-3.37Q194.83-6.81 194.83-12.67L194.83-12.67Q194.83-18.58 198.1-21.95L198.1-21.95Q201.2-25.15 206.5-25.15L206.5-25.15Q210.18-25.15 212.26-23L212.26-23Q213.89-21.29 213.89-19.06 213.89-16.82 213.03-15.03 212.16-13.23 210.48-11.94L210.48-11.94Q207.01-9.25 200.78-9.11L200.78-9.11Q201.3-4.2 203.86-2.54L203.86-2.54Q204.79-1.95 206.33-1.95 207.86-1.95 209.6-3.56 211.33-5.18 212.77-8.3ZM200.64-12.18L200.64-11.43Q208.35-11.94 208.35-18.9L208.35-18.9Q208.35-21.51 206.79-22.41L206.79-22.41Q206.25-22.71 205.37-22.71 204.49-22.71 203.6-22.17 202.71-21.63 202.05-20.41L202.05-20.41Q200.64-17.75 200.64-12.18L200.64-12.18Z" fill="#000000" data-fill-palette-color="primary"></path></g></svg></g></svg></g></svg></g></svg></g><g transform="matrix(1,0,0,1,412.26424304105524,0)"><svg viewBox="0 0 226.23662913614126 98.02158577211735" height="98.02158577211735" width="226.23662913614126"><g><svg xmlns="http://www.w3.org/2000/svg" xmlns:xlink="http://www.w3.org/1999/xlink" version="1.0" x="0" y="0" viewBox="7.329 41.696 87.622 37.964" enable-background="new 0 0 100 100" xml:space="preserve" height="98.02158577211735" width="226.23662913614126" class="icon-icon-0" data-fill-palette-color="accent" id="icon-0"><path d="M94.938 44.111L55.876 41.956 53.208 41.81 51.154 41.696 7.329 43.281 7.341 43.528H7.339L7.493 46.115 16.904 47.761 7.63 48.431 7.663 48.931 7.798 51.161 13.949 52.791 7.923 53.44 7.966 53.945 8.096 56.126 12.651 57.733 8.212 58.366 8.263 58.882 8.395 61.075 50.68 79.66 93.535 61.9 93.708 59.707 93.77 59.193 89.323 58.47 93.927 56.952 94.1 54.774 94.152 54.267 88.11 53.5 94.32 51.989 94.497 49.758 94.54 49.26 85.231 48.408 94.719 46.944 94.905 44.608 94.951 44.603zM33.365 46.614L39.491 46.197C41.602 45.996 43.218 45.968 44.643 45.943 46.795 45.904 48.654 45.871 51.254 45.249A84 84 0 0 0 54.608 44.371C56.162 43.938 57.098 43.677 59.129 43.491 62.193 43.207 65.846 43.968 65.899 43.978 67.453 44.253 71.218 43.449 71.768 43.328L77.963 43.67C74.577 43.999 69.676 44.542 68.362 45.034 67.373 45.405 65.56 45.15 63.807 44.904 62.339 44.697 60.823 44.483 59.609 44.601 58.244 44.732 57.856 45.054 57.455 45.493 57.204 45.769 56.945 46.054 55.561 46.241 52.811 46.612 43.952 47.603 42.407 47.776zM55.251 42.416L58.299 42.584C56.669 42.772 55.75 43.029 54.343 43.421 53.516 43.652 52.486 43.939 51.026 44.289 48.529 44.887 46.806 44.917 44.627 44.956 43.184 44.981 41.549 45.011 39.413 45.214L28.328 45.969 20.106 44.915C25.211 44.69 31.908 44.393 32.72 44.342 34.131 44.254 43.525 43.875 46.237 43.984 47.904 44.055 50.334 43.487 52.477 42.99 53.542 42.743 54.562 42.512 55.251 42.416M66.165 43.018L66.767 43.052A4 4 0 0 1 66.165 43.018M51.15 42.189L51.48 42.208C49.665 42.624 47.616 43.051 46.275 43 43.474 42.886 34.128 43.268 32.659 43.359 31.429 43.436 16.066 44.106 14.361 44.181L10.353 43.667zM92.771 59.531L50.721 75.188 9.2 58.724 13.655 58.089 50.757 71.182 88.306 58.805zM92.901 54.606L50.799 66.704 9.162 53.803 15.28 53.144 50.838 62.569 86.769 53.826zM92.804 49.596L50.879 57.968 9.353 48.801 18.903 48.11 50.92 53.706 83.222 48.72zM50.963 48.87L46.534 48.303C49.768 47.936 53.951 47.453 55.694 47.218 57.306 47 57.759 46.625 58.186 46.157 58.424 45.895 58.614 45.687 59.705 45.582 60.801 45.476 62.261 45.682 63.671 45.88 65.633 46.155 67.485 46.417 68.71 45.958 70.221 45.392 77.668 44.658 81.38 44.35L85.912 44.109 91.894 44.439z" fill="#000000" data-fill-palette-color="accent"></path></svg></g></svg></g></svg></g><defs></defs></svg><rect width="395.5199999999999" height="60.71956874920063" fill="none" stroke="none" visibility="hidden"></rect></g></svg></g></svg>